
<svg xmlns="http://www.w3.org/2000/svg" data-name="Layer 1" viewBox="0 0 512 512"><rect width="497" height="323" x="7.5" y="92.5" fill="#787681" rx="30"/><path fill="#57565c" d="M474.5,92.5h-15a30,30,0,0,1,30,30v263a30,30,0,0,1-30,30h15a30,30,0,0,0,30-30v-263A30,30,0,0,0,474.5,92.5Z"/><rect width="263" height="437" x="124.5" y="35.5" fill="#52bbe9" rx="6" transform="rotate(90 256 254)"/><path fill="#1cabe1" d="M468.5,122.5h-45a6,6,0,0,1,6,6v251a6,6,0,0,1-6,6h45a6,6,0,0,0,6-6v-251A6,6,0,0,0,468.5,122.5Z"/><rect width="65" height="44" x="223.5" y="415.5" fill="#8b8893"/><rect width="65" height="44" x="223.5" y="415.5" fill="#8b8893"/><rect width="30" height="44" x="258.5" y="415.5" fill="#787681"/><path fill="#787681" d="M358.12574,504.5H153.87426a10,10,0,0,1-9.48683-13.16228l8.33333-25A10,10,0,0,1,162.20759,459.5H349.79241a10,10,0,0,1,9.48683,6.83772l8.33333,25A10,10,0,0,1,358.12574,504.5Z"/><path fill="#57565c" d="M367.61255,491.33771l-8.33331-25A9.99994,9.99994,0,0,0,349.79242,459.5h-45a9.99994,9.99994,0,0,1,9.48682,6.83771l8.33331,25A10,10,0,0,1,313.12573,504.5h45A10,10,0,0,0,367.61255,491.33771Z"/><rect width="75" height="209" x="429.5" y="295.5" fill="#e1e1e3" rx="15"/><path fill="#c8c5cc" d="M489.5,295.5h-15a15,15,0,0,1,15,15v179a15,15,0,0,1-15,15h15a15,15,0,0,0,15-15v-179A15,15,0,0,0,489.5,295.5Z"/><circle cx="467" cy="324.5" r="7.5" fill="#eb304a"/><path fill="#3c3b41" d="M474.5,85.00019H37.5a37.54227,37.54227,0,0,0-37.5,37.5v263a37.54226,37.54226,0,0,0,37.5,37.5H216v29H162.20752a17.47832,17.47832,0,0,0-16.602,11.96631l-8.3335,25a17.50052,17.50052,0,0,0,16.602,23.03369H358.126a17.50051,17.50051,0,0,0,16.602-23.03369l-8.3335-25.00049a17.47851,17.47851,0,0,0-16.602-11.96582H296v-29H422v66.5a22.52523,22.52523,0,0,0,22.5,22.5h45a22.52523,22.52523,0,0,0,22.5-22.5v-367A37.54226,37.54226,0,0,0,474.5,85.00019Zm-124.70752,382a2.49681,2.49681,0,0,1,2.37158,1.70947l8.3335,25a2.5,2.5,0,0,1-2.37158,3.29053H153.874a2.5,2.5,0,0,1-2.37158-3.29053l8.3335-24.99951a2.49662,2.49662,0,0,1,2.37158-1.71ZM231,452.00019v-29h50v29Zm191-141.5v67.5H45v-248H467v158H444.5A22.52523,22.52523,0,0,0,422,310.50019Zm75,179a7.5082,7.5082,0,0,1-7.5,7.5h-45a7.5082,7.5082,0,0,1-7.5-7.5v-179a7.5082,7.5082,0,0,1,7.5-7.5h45a7.5082,7.5082,0,0,1,7.5,7.5Zm0-200.21a22.39313,22.39313,0,0,0-7.5-1.29H482v-165.5a7.50006,7.50006,0,0,0-7.5-7.5H37.5a7.50006,7.50006,0,0,0-7.5,7.5v263a7.50006,7.50006,0,0,0,7.5,7.5H422v15H37.5a22.52523,22.52523,0,0,1-22.5-22.5v-263a22.52523,22.52523,0,0,1,22.5-22.5h437a22.52523,22.52523,0,0,1,22.5,22.5Zm-36.93017,38.07959a7.58029,7.58029,0,0,0,.68994,1.29,7.7118,7.7118,0,0,0,2.08008,2.08008,7.5802,7.5802,0,0,0,1.29.68994,7.7337,7.7337,0,0,0,1.39991.41992,7.25922,7.25922,0,0,0,2.93994,0,7.72212,7.72212,0,0,0,1.3999-.41992,7.57992,7.57992,0,0,0,1.29-.68994,7.7118,7.7118,0,0,0,2.08008-2.08008,7.58029,7.58029,0,0,0,.68994-1.29,7.72212,7.72212,0,0,0,.41992-1.3999,7.25922,7.25922,0,0,0,0-2.93994,7.74545,7.74545,0,0,0-.41992-1.39991,7.58067,7.58067,0,0,0-.68994-1.29,7.71195,7.71195,0,0,0-2.08008-2.08007,7.58067,7.58067,0,0,0-1.29-.68995,7.72292,7.72292,0,0,0-1.3999-.41992,7.27094,7.27094,0,0,0-2.93994,0,7.7345,7.7345,0,0,0-1.39991.41992,7.581,7.581,0,0,0-1.29.68995,7.71195,7.71195,0,0,0-2.08008,2.08007,7.58067,7.58067,0,0,0-.68994,1.29,7.74549,7.74549,0,0,0-.41993,1.39991,7.28246,7.28246,0,0,0,0,2.93994A7.72216,7.72216,0,0,0,460.06983,327.36982ZM474.5,437.00019h-15a7.5,7.5,0,0,0,0,15h15a7.5,7.5,0,0,0,0-15Zm0,30h-15a7.5,7.5,0,0,0,0,15h15a7.5,7.5,0,0,0,0-15Z"/></svg>